<svg width="36" height="37" viewBox="0 0 36 37" fill="none" xmlns="http://www.w3.org/2000/svg">
<g id="material-symbols:sos">
<path id="Vector" d="M15.75 25.9523C14.925 25.9523 14.2185 25.6606 13.6305 25.0773C13.0425 24.494 12.749 23.7937 12.75 22.9763V14.0483C12.75 13.2299 13.044 12.529 13.632 11.9457C14.22 11.3624 14.926 11.0713 15.75 11.0723H20.25C21.075 11.0723 21.7815 11.3639 22.3695 11.9472C22.9575 12.5305 23.251 13.2309 23.25 14.0483V22.9763C23.25 23.7947 22.956 24.4955 22.368 25.0788C21.78 25.6621 21.074 25.9533 20.25 25.9523H15.75ZM1.5 25.9523V22.9763H7.5V20.0003H4.5C3.675 20.0003 2.9685 19.7086 2.3805 19.1253C1.7925 18.542 1.499 17.8417 1.5 17.0243V14.0483C1.5 13.2299 1.794 12.529 2.382 11.9457C2.97 11.3624 3.676 11.0713 4.5 11.0723H10.5V14.0483H4.5V17.0243H7.5C8.325 17.0243 9.0315 17.3159 9.6195 17.8992C10.2075 18.4825 10.501 19.1829 10.5 20.0003V22.9763C10.5 23.7947 10.206 24.4955 9.618 25.0788C9.03 25.6621 8.324 25.9533 7.5 25.9523H1.5ZM25.5 25.9523V22.9763H31.5V20.0003H28.5C27.675 20.0003 26.9685 19.7086 26.3805 19.1253C25.7925 18.542 25.499 17.8417 25.5 17.0243V14.0483C25.5 13.2299 25.794 12.529 26.382 11.9457C26.97 11.3624 27.676 11.0713 28.5 11.0723H34.5V14.0483H28.5V17.0243H31.5C32.325 17.0243 33.0315 17.3159 33.6195 17.8992C34.2075 18.4825 34.501 19.1829 34.5 20.0003V22.9763C34.5 23.7947 34.206 24.4955 33.618 25.0788C33.03 25.6621 32.324 25.9533 31.5 25.9523H25.5ZM15.75 22.9763H20.25V14.0483H15.75V22.9763Z" fill="#FF6C00"/>
</g>
</svg>
